<?xml version="1.0" encoding="UTF-8" standalone="no"?>
<!-- Created with Inkscape (http://www.inkscape.org/) -->

<svg
   width="100mm"
   height="100mm"
   viewBox="0 0 100 100"
   version="1.1"
   id="svg5"
   sodipodi:docname="qubit_err.svg"
   inkscape:version="1.1.1 (3bf5ae0d25, 2021-09-20)"
   inkscape:export-filename="/home/lala5th/Documents/Poster/figures/qubit_err.png"
   inkscape:export-xdpi="109.49"
   inkscape:export-ydpi="109.49"
   xmlns:inkscape="http://www.inkscape.org/namespaces/inkscape"
   xmlns:sodipodi="http://sodipodi.sourceforge.net/DTD/sodipodi-0.dtd"
   xmlns:xlink="http://www.w3.org/1999/xlink"
   xmlns="http://www.w3.org/2000/svg"
   xmlns:svg="http://www.w3.org/2000/svg">
  <sodipodi:namedview
     id="namedview7"
     pagecolor="#000000"
     bordercolor="#666666"
     borderopacity="1.0"
     inkscape:pageshadow="2"
     inkscape:pageopacity="0"
     inkscape:pagecheckerboard="true"
     inkscape:document-units="mm"
     showgrid="false"
     inkscape:snap-intersection-paths="true"
     inkscape:snap-object-midpoints="true"
     inkscape:snap-center="true"
     inkscape:snap-smooth-nodes="true"
     inkscape:snap-bbox="true"
     inkscape:snap-bbox-midpoints="true"
     inkscape:zoom="1.587419"
     inkscape:cx="210.08946"
     inkscape:cy="225.20834"
     inkscape:window-width="3840"
     inkscape:window-height="2131"
     inkscape:window-x="1920"
     inkscape:window-y="0"
     inkscape:window-maximized="1"
     inkscape:current-layer="layer1"
     units="mm"
     width="209mm" />
  <defs
     id="defs2">
    <marker
       style="overflow:visible"
       id="Arrow2Mend"
       refX="0"
       refY="0"
       orient="auto"
       inkscape:stockid="Arrow2Mend"
       inkscape:isstock="true">
      <path
         transform="scale(-0.6)"
         d="M 8.7185878,4.0337352 -2.2072895,0.01601326 8.7185884,-4.0017078 c -1.7454984,2.3720609 -1.7354408,5.6174519 -6e-7,8.035443 z"
         style="fill:context-stroke;fill-rule:evenodd;stroke:context-stroke;stroke-width:0.625;stroke-linejoin:round"
         id="path2117" />
    </marker>
    <marker
       style="overflow:visible"
       id="Arrow2Sstart"
       refX="0"
       refY="0"
       orient="auto"
       inkscape:stockid="Arrow2Sstart"
       inkscape:isstock="true">
      <path
         transform="matrix(0.3,0,0,0.3,-0.69,0)"
         d="M 8.7185878,4.0337352 -2.2072895,0.01601326 8.7185884,-4.0017078 c -1.7454984,2.3720609 -1.7354408,5.6174519 -6e-7,8.035443 z"
         style="fill:context-stroke;fill-rule:evenodd;stroke:context-stroke;stroke-width:0.625;stroke-linejoin:round"
         id="path2120" />
    </marker>
    <marker
       style="overflow:visible"
       id="marker13381"
       refX="0"
       refY="0"
       orient="auto"
       inkscape:stockid="Arrow2Mstart"
       inkscape:isstock="true">
      <path
         transform="scale(0.6)"
         d="M 8.7185878,4.0337352 -2.2072895,0.01601326 8.7185884,-4.0017078 c -1.7454984,2.3720609 -1.7354408,5.6174519 -6e-7,8.035443 z"
         style="fill:context-stroke;fill-rule:evenodd;stroke:context-stroke;stroke-width:0.625;stroke-linejoin:round"
         id="path13379" />
    </marker>
    <marker
       style="overflow:visible"
       id="Arrow2Mstart"
       refX="0"
       refY="0"
       orient="auto"
       inkscape:stockid="Arrow2Mstart"
       inkscape:isstock="true">
      <path
         transform="scale(0.6)"
         d="M 8.7185878,4.0337352 -2.2072895,0.01601326 8.7185884,-4.0017078 c -1.7454984,2.3720609 -1.7354408,5.6174519 -6e-7,8.035443 z"
         style="fill:context-stroke;fill-rule:evenodd;stroke:context-stroke;stroke-width:0.625;stroke-linejoin:round"
         id="path2114" />
    </marker>
    <marker
       style="overflow:visible"
       id="marker13363"
       refX="0"
       refY="0"
       orient="auto"
       inkscape:stockid="Arrow1Mstart"
       inkscape:isstock="true">
      <path
         transform="matrix(0.4,0,0,0.4,4,0)"
         style="fill:context-stroke;fill-rule:evenodd;stroke:context-stroke;stroke-width:1pt"
         d="M 0,0 5,-5 -12.5,0 5,5 Z"
         id="path13361" />
    </marker>
    <marker
       style="overflow:visible"
       id="marker13353"
       refX="0"
       refY="0"
       orient="auto"
       inkscape:stockid="Arrow1Mend"
       inkscape:isstock="true">
      <path
         transform="matrix(-0.4,0,0,-0.4,-4,0)"
         style="fill:context-stroke;fill-rule:evenodd;stroke:context-stroke;stroke-width:1pt"
         d="M 0,0 5,-5 -12.5,0 5,5 Z"
         id="path13351" />
    </marker>
    <marker
       style="overflow:visible"
       id="Arrow1Mend"
       refX="0"
       refY="0"
       orient="auto"
       inkscape:stockid="Arrow1Mend"
       inkscape:isstock="true">
      <path
         transform="matrix(-0.4,0,0,-0.4,-4,0)"
         style="fill:context-stroke;fill-rule:evenodd;stroke:context-stroke;stroke-width:1pt"
         d="M 0,0 5,-5 -12.5,0 5,5 Z"
         id="path2099" />
    </marker>
    <marker
       style="overflow:visible"
       id="Arrow1Mstart"
       refX="0"
       refY="0"
       orient="auto"
       inkscape:stockid="Arrow1Mstart"
       inkscape:isstock="true">
      <path
         transform="matrix(0.4,0,0,0.4,4,0)"
         style="fill:context-stroke;fill-rule:evenodd;stroke:context-stroke;stroke-width:1pt"
         d="M 0,0 5,-5 -12.5,0 5,5 Z"
         id="path2096" />
    </marker>
    <g
       id="g6907">
      <symbol
         overflow="visible"
         id="symbol7268">
        <path
           style="stroke:none"
           d=""
           id="path2657" />
      </symbol>
      <symbol
         overflow="visible"
         id="symbol9798">
        <path
           style="stroke:none"
           d="m 6.03125,-3.703125 c 0,-0.453125 -0.171875,-0.703125 -0.40625,-0.703125 -0.25,0 -0.515625,0.234375 -0.515625,0.46875 0,0.09375 0.046875,0.203125 0.140625,0.296875 0.171875,0.15625 0.359375,0.421875 0.359375,0.84375 0,0.390625 -0.203125,0.96875 -0.5,1.421875 C 4.8125,-0.953125 4.4375,-0.609375 3.96875,-0.609375 3.40625,-0.609375 3.09375,-0.96875 3,-1.5 c 0.109375,-0.265625 0.34375,-0.90625 0.34375,-1.1875 0,-0.109375 -0.046875,-0.21875 -0.1875,-0.21875 -0.078125,0 -0.1875,0.03125 -0.265625,0.171875 C 2.78125,-2.53125 2.65625,-1.890625 2.65625,-1.53125 2.328125,-1.0625 1.9375,-0.609375 1.3125,-0.609375 c -0.671875,0 -0.875,-0.59375 -0.875,-1.140625 0,-1.25 1.015625,-2.296875 1.015625,-2.421875 0,-0.109375 -0.078125,-0.1875 -0.1875,-0.1875 -0.125,0 -0.203125,0.125 -0.265625,0.21875 -0.5,0.734375 -0.875,1.921875 -0.875,2.828125 0,0.6875 0.21875,1.421875 1.046875,1.421875 0.703125,0 1.171875,-0.5 1.53125,-1.046875 0.09375,0.578125 0.484375,1.046875 1.09375,1.046875 0.78125,0 1.25,-0.609375 1.609375,-1.359375 0.25,-0.484375 0.625,-1.84375 0.625,-2.453125 z m 0,0"
           id="path8486" />
      </symbol>
      <symbol
         overflow="visible"
         id="symbol3674">
        <path
           style="stroke:none"
           d=""
           id="path1502" />
      </symbol>
      <symbol
         overflow="visible"
         id="symbol6056">
        <path
           style="stroke:none"
           d="m 1.5625,-1.59375 c 0.1875,0 0.75,-0.015625 1.125,-0.140625 0.515625,-0.1875 0.609375,-0.515625 0.609375,-0.71875 0,-0.390625 -0.390625,-0.625 -0.859375,-0.625 -0.84375,0 -1.96875,0.640625 -1.96875,1.84375 0,0.703125 0.4375,1.296875 1.25,1.296875 1.1875,0 1.734375,-0.6875 1.734375,-0.78125 0,-0.046875 -0.0625,-0.125 -0.125,-0.125 -0.03125,0 -0.046875,0.015625 -0.109375,0.078125 C 2.671875,-0.125 1.859375,-0.125 1.734375,-0.125 1.3125,-0.125 1.03125,-0.40625 1.03125,-0.96875 c 0,-0.09375 0,-0.234375 0.09375,-0.625 z M 1.171875,-1.78125 C 1.46875,-2.796875 2.234375,-2.875 2.4375,-2.875 2.734375,-2.875 3,-2.71875 3,-2.453125 3,-1.78125 1.8125,-1.78125 1.515625,-1.78125 Z m 0,0"
           id="path594" />
      </symbol>
      <symbol
         overflow="visible"
         id="symbol1006">
        <path
           style="stroke:none"
           d="m 3.703125,-2.578125 c 0.03125,-0.09375 0.03125,-0.125 0.03125,-0.140625 0,-0.15625 -0.125,-0.21875 -0.234375,-0.21875 -0.15625,0 -0.296875,0.125 -0.328125,0.265625 -0.109375,-0.1875 -0.34375,-0.40625 -0.71875,-0.40625 -0.859375,0 -1.78125,0.9375 -1.78125,1.9375 0,0.71875 0.484375,1.140625 1.0625,1.140625 0.328125,0 0.625,-0.15625 0.875,-0.375 L 2.453125,0.25 C 2.375,0.546875 2.328125,0.734375 2.0625,0.96875 c -0.3125,0.25 -0.609375,0.25 -0.78125,0.25 -0.3125,0 -0.40625,-0.015625 -0.53125,-0.046875 0.171875,-0.078125 0.21875,-0.25 0.21875,-0.34375 0,-0.171875 -0.125,-0.25 -0.265625,-0.25 C 0.5,0.578125 0.296875,0.734375 0.296875,1 c 0,0.421875 0.609375,0.421875 1,0.421875 1.09375,0 1.546875,-0.5625 1.65625,-0.953125 z M 2.75,-0.921875 c -0.03125,0.09375 -0.03125,0.109375 -0.15625,0.25 C 2.359375,-0.375 2.015625,-0.1875 1.75,-0.1875 c -0.34375,0 -0.515625,-0.3125 -0.515625,-0.671875 0,-0.296875 0.1875,-1.078125 0.375,-1.390625 0.28125,-0.484375 0.609375,-0.625 0.84375,-0.625 0.5,0 0.625,0.515625 0.625,0.59375 0,0.015625 0,0.015625 -0.015625,0.09375 z m 0,0"
           id="path2813" />
      </symbol>
    </g>
    <g
       id="g7250">
      <symbol
         overflow="visible"
         id="symbol5537">
        <path
           style="stroke:none"
           d=""
           id="path2712" />
      </symbol>
      <symbol
         overflow="visible"
         id="symbol5598">
        <path
           style="stroke:none"
           d="m 1.53125,-3.046875 c -1.078125,0.71875 -1.296875,1.65625 -1.296875,2.015625 0,0.46875 0.265625,0.75 0.28125,0.78125 0.328125,0.328125 0.40625,0.375 1.15625,0.65625 L 2.875,0.875 C 3.03125,0.9375 3.234375,1 3.234375,1.296875 c 0,0.234375 -0.1875,0.53125 -0.5,0.53125 -0.4375,0 -0.765625,-0.25 -0.875,-0.328125 C 1.796875,1.46875 1.796875,1.453125 1.75,1.453125 c -0.078125,0 -0.09375,0.078125 -0.09375,0.109375 0,0.125 0.53125,0.484375 1.078125,0.484375 0.625,0 1.046875,-0.578125 1.046875,-1.0625 C 3.78125,0.5 3.40625,0.3125 3.296875,0.265625 3.15625,0.21875 2.828125,0.09375 2.6875,0.046875 2.5,-0.046875 2.296875,-0.125 2.078125,-0.1875 l -0.59375,-0.234375 c -0.453125,-0.1875 -0.75,-0.46875 -0.75,-0.890625 0,-0.40625 0.390625,-1.28125 1.234375,-1.703125 C 2.328125,-2.875 2.625,-2.875 2.84375,-2.875 c 0.296875,0 0.921875,0 0.921875,-0.3125 0,-0.25 -0.421875,-0.265625 -0.8125,-0.265625 -0.1875,0 -0.46875,0 -0.84375,0.109375 -0.25,-0.25 -0.296875,-0.578125 -0.296875,-0.765625 0,-0.5625 0.359375,-1.328125 1.109375,-1.703125 0.171875,0.21875 0.40625,0.21875 0.640625,0.21875 0.25,0 0.890625,0 0.890625,-0.3125 0,-0.25 -0.453125,-0.265625 -0.828125,-0.265625 -0.140625,0 -0.375,0 -0.640625,0.046875 C 2.953125,-6.203125 2.9375,-6.28125 2.9375,-6.453125 c 0,-0.140625 0.046875,-0.34375 0.046875,-0.359375 0,-0.078125 -0.046875,-0.140625 -0.109375,-0.140625 -0.1875,0 -0.1875,0.46875 -0.1875,0.5 0,0.1875 0.0625,0.34375 0.078125,0.375 -1.078125,0.3125 -1.75,1.109375 -1.75,1.875 0,0.359375 0.1875,0.78125 0.65625,1.046875 z m 1.625,-2.859375 C 3.3125,-5.953125 3.515625,-5.953125 3.625,-5.953125 c 0.34375,0 0.375,0.015625 0.5625,0.0625 C 4.109375,-5.859375 4,-5.8125 3.5625,-5.8125 c -0.1875,0 -0.296875,0 -0.40625,-0.09375 z M 2.375,-3.1875 c 0.234375,-0.046875 0.453125,-0.046875 0.5625,-0.046875 0.359375,0 0.390625,0 0.578125,0.046875 -0.09375,0.046875 -0.1875,0.09375 -0.640625,0.09375 -0.234375,0 -0.328125,0 -0.5,-0.09375 z m 0,0"
           id="path7864" />
      </symbol>
    </g>
    <g
       id="g980">
      <symbol
         overflow="visible"
         id="symbol5043">
        <path
           style="stroke:none"
           d=""
           id="path5341" />
      </symbol>
      <symbol
         overflow="visible"
         id="symbol1647">
        <path
           style="stroke:none"
           d="m 1.71875,-7.140625 c 0,-0.15625 0,-0.34375 -0.203125,-0.34375 -0.203125,0 -0.203125,0.234375 -0.203125,0.375 V 2.125 c 0,0.15625 0,0.375 0.203125,0.375 C 1.71875,2.5 1.71875,2.3125 1.71875,2.15625 Z m 1.9375,0.03125 c 0,-0.15625 0,-0.375 -0.203125,-0.375 -0.1875,0 -0.1875,0.1875 -0.1875,0.34375 V 2.15625 c 0,0.15625 0,0.34375 0.1875,0.34375 C 3.65625,2.5 3.65625,2.265625 3.65625,2.125 Z m 0,0"
           id="path2525" />
      </symbol>
      <symbol
         overflow="visible"
         id="symbol9767">
        <path
           style="stroke:none"
           d="M 2.71875,-2.328125 C 2.765625,-2.4375 2.765625,-2.46875 2.765625,-2.5 c 0,-0.015625 0,-0.046875 -0.046875,-0.15625 L 0.984375,-7.25 c -0.0625,-0.171875 -0.125,-0.234375 -0.234375,-0.234375 -0.109375,0 -0.203125,0.09375 -0.203125,0.203125 0,0.03125 0,0.046875 0.046875,0.15625 L 2.359375,-2.5 0.59375,2.109375 C 0.546875,2.21875 0.546875,2.25 0.546875,2.296875 0.546875,2.40625 0.640625,2.5 0.75,2.5 0.875,2.5 0.921875,2.390625 0.953125,2.296875 Z m 0,0"
           id="path3339" />
      </symbol>
      <symbol
         overflow="visible"
         id="symbol968">
        <path
           style="stroke:none"
           d=""
           id="path6946" />
      </symbol>
      <symbol
         overflow="visible"
         id="symbol8299">
        <path
           style="stroke:none"
           d="m 4.578125,-3.1875 c 0,-0.796875 -0.046875,-1.59375 -0.390625,-2.328125 -0.453125,-0.96875 -1.28125,-1.125 -1.6875,-1.125 -0.609375,0 -1.328125,0.265625 -1.75,1.1875 -0.3125,0.6875 -0.359375,1.46875 -0.359375,2.265625 0,0.75 0.03125,1.640625 0.453125,2.40625 0.421875,0.796875 1.15625,1 1.640625,1 0.53125,0 1.296875,-0.203125 1.734375,-1.15625 0.3125,-0.6875 0.359375,-1.46875 0.359375,-2.25 z M 2.484375,0 C 2.09375,0 1.5,-0.25 1.328125,-1.203125 1.21875,-1.796875 1.21875,-2.71875 1.21875,-3.3125 c 0,-0.640625 0,-1.296875 0.078125,-1.828125 0.1875,-1.1875 0.9375,-1.28125 1.1875,-1.28125 0.328125,0 0.984375,0.1875 1.171875,1.171875 0.109375,0.5625 0.109375,1.3125 0.109375,1.9375 0,0.75 0,1.421875 -0.109375,2.0625 C 3.5,-0.296875 2.9375,0 2.484375,0 Z m 0,0"
           id="path2169" />
      </symbol>
    </g>
    <g
       id="g757">
      <symbol
         overflow="visible"
         id="symbol2067">
        <path
           style="stroke:none"
           d=""
           id="path3725" />
      </symbol>
      <symbol
         overflow="visible"
         id="symbol5195">
        <path
           style="stroke:none"
           d="m 1.578125,-7.125 c 0,-0.171875 0,-0.359375 -0.1875,-0.359375 -0.203125,0 -0.203125,0.1875 -0.203125,0.359375 v 9.265625 c 0,0.171875 0,0.359375 0.203125,0.359375 0.1875,0 0.1875,-0.1875 0.1875,-0.359375 z m 0,0"
           id="path9578" />
      </symbol>
      <symbol
         overflow="visible"
         id="symbol9506">
        <path
           style="stroke:none"
           d="M 2.71875,-2.328125 C 2.765625,-2.4375 2.765625,-2.46875 2.765625,-2.5 c 0,-0.015625 0,-0.046875 -0.046875,-0.15625 L 0.984375,-7.25 c -0.0625,-0.171875 -0.125,-0.234375 -0.234375,-0.234375 -0.109375,0 -0.203125,0.09375 -0.203125,0.203125 0,0.03125 0,0.046875 0.046875,0.15625 L 2.359375,-2.5 0.59375,2.109375 C 0.546875,2.21875 0.546875,2.25 0.546875,2.296875 0.546875,2.40625 0.640625,2.5 0.75,2.5 0.875,2.5 0.921875,2.390625 0.953125,2.296875 Z m 0,0"
           id="path9476" />
      </symbol>
      <symbol
         overflow="visible"
         id="symbol7981">
        <path
           style="stroke:none"
           d=""
           id="path7080" />
      </symbol>
      <symbol
         overflow="visible"
         id="symbol7700">
        <path
           style="stroke:none"
           d="m 4.578125,-3.1875 c 0,-0.796875 -0.046875,-1.59375 -0.390625,-2.328125 -0.453125,-0.96875 -1.28125,-1.125 -1.6875,-1.125 -0.609375,0 -1.328125,0.265625 -1.75,1.1875 -0.3125,0.6875 -0.359375,1.46875 -0.359375,2.265625 0,0.75 0.03125,1.640625 0.453125,2.40625 0.421875,0.796875 1.15625,1 1.640625,1 0.53125,0 1.296875,-0.203125 1.734375,-1.15625 0.3125,-0.6875 0.359375,-1.46875 0.359375,-2.25 z M 2.484375,0 C 2.09375,0 1.5,-0.25 1.328125,-1.203125 1.21875,-1.796875 1.21875,-2.71875 1.21875,-3.3125 c 0,-0.640625 0,-1.296875 0.078125,-1.828125 0.1875,-1.1875 0.9375,-1.28125 1.1875,-1.28125 0.328125,0 0.984375,0.1875 1.171875,1.171875 0.109375,0.5625 0.109375,1.3125 0.109375,1.9375 0,0.75 0,1.421875 -0.109375,2.0625 C 3.5,-0.296875 2.9375,0 2.484375,0 Z m 0,0"
           id="path1175" />
      </symbol>
    </g>
    <g
       id="g7600">
      <symbol
         overflow="visible"
         id="symbol6108">
        <path
           style="stroke:none"
           d=""
           id="path9660" />
      </symbol>
      <symbol
         overflow="visible"
         id="symbol8241">
        <path
           style="stroke:none"
           d="m 1.578125,-7.125 c 0,-0.171875 0,-0.359375 -0.1875,-0.359375 -0.203125,0 -0.203125,0.1875 -0.203125,0.359375 v 9.265625 c 0,0.171875 0,0.359375 0.203125,0.359375 0.1875,0 0.1875,-0.1875 0.1875,-0.359375 z m 0,0"
           id="path2896" />
      </symbol>
      <symbol
         overflow="visible"
         id="symbol1322">
        <path
           style="stroke:none"
           d="M 2.71875,-2.328125 C 2.765625,-2.4375 2.765625,-2.46875 2.765625,-2.5 c 0,-0.015625 0,-0.046875 -0.046875,-0.15625 L 0.984375,-7.25 c -0.0625,-0.171875 -0.125,-0.234375 -0.234375,-0.234375 -0.109375,0 -0.203125,0.09375 -0.203125,0.203125 0,0.03125 0,0.046875 0.046875,0.15625 L 2.359375,-2.5 0.59375,2.109375 C 0.546875,2.21875 0.546875,2.25 0.546875,2.296875 0.546875,2.40625 0.640625,2.5 0.75,2.5 0.875,2.5 0.921875,2.390625 0.953125,2.296875 Z m 0,0"
           id="path2577" />
      </symbol>
      <symbol
         overflow="visible"
         id="symbol1347">
        <path
           style="stroke:none"
           d=""
           id="path3109" />
      </symbol>
      <symbol
         overflow="visible"
         id="symbol4292">
        <path
           style="stroke:none"
           d="m 2.9375,-6.375 c 0,-0.25 0,-0.265625 -0.234375,-0.265625 C 2.078125,-6 1.203125,-6 0.890625,-6 v 0.3125 c 0.203125,0 0.78125,0 1.296875,-0.265625 v 5.171875 c 0,0.359375 -0.03125,0.46875 -0.921875,0.46875 h -0.3125 V 0 c 0.34375,-0.03125 1.203125,-0.03125 1.609375,-0.03125 0.390625,0 1.265625,0 1.609375,0.03125 v -0.3125 h -0.3125 c -0.90625,0 -0.921875,-0.109375 -0.921875,-0.46875 z m 0,0"
           id="path4832" />
      </symbol>
    </g>
    <g
       id="g1818">
      <symbol
         overflow="visible"
         id="symbol5816">
        <path
           style="stroke:none"
           d=""
           id="path4841" />
      </symbol>
      <symbol
         overflow="visible"
         id="symbol6154">
        <path
           style="stroke:none"
           d="m 1.578125,-7.125 c 0,-0.171875 0,-0.359375 -0.1875,-0.359375 -0.203125,0 -0.203125,0.1875 -0.203125,0.359375 v 9.265625 c 0,0.171875 0,0.359375 0.203125,0.359375 0.1875,0 0.1875,-0.1875 0.1875,-0.359375 z m 0,0"
           id="path8160" />
      </symbol>
      <symbol
         overflow="visible"
         id="symbol806">
        <path
           style="stroke:none"
           d="M 2.71875,-2.328125 C 2.765625,-2.4375 2.765625,-2.46875 2.765625,-2.5 c 0,-0.015625 0,-0.046875 -0.046875,-0.15625 L 0.984375,-7.25 c -0.0625,-0.171875 -0.125,-0.234375 -0.234375,-0.234375 -0.109375,0 -0.203125,0.09375 -0.203125,0.203125 0,0.03125 0,0.046875 0.046875,0.15625 L 2.359375,-2.5 0.59375,2.109375 C 0.546875,2.21875 0.546875,2.25 0.546875,2.296875 0.546875,2.40625 0.640625,2.5 0.75,2.5 0.875,2.5 0.921875,2.390625 0.953125,2.296875 Z m 0,0"
           id="path9504" />
      </symbol>
      <symbol
         overflow="visible"
         id="symbol9733">
        <path
           style="stroke:none"
           d=""
           id="path8155" />
      </symbol>
      <symbol
         overflow="visible"
         id="symbol7735">
        <path
           style="stroke:none"
           d="m 2.9375,-6.375 c 0,-0.25 0,-0.265625 -0.234375,-0.265625 C 2.078125,-6 1.203125,-6 0.890625,-6 v 0.3125 c 0.203125,0 0.78125,0 1.296875,-0.265625 v 5.171875 c 0,0.359375 -0.03125,0.46875 -0.921875,0.46875 h -0.3125 V 0 c 0.34375,-0.03125 1.203125,-0.03125 1.609375,-0.03125 0.390625,0 1.265625,0 1.609375,0.03125 v -0.3125 h -0.3125 c -0.90625,0 -0.921875,-0.109375 -0.921875,-0.46875 z m 0,0"
           id="path9546" />
      </symbol>
      <symbol
         overflow="visible"
         id="symbol7828">
        <path
           style="stroke:none"
           d=""
           id="path5707" />
      </symbol>
      <symbol
         overflow="visible"
         id="symbol3521">
        <path
           style="stroke:none"
           d="m 2.015625,-3.296875 c 0.0625,-0.109375 0.0625,-0.171875 0.0625,-0.21875 0,-0.21875 -0.1875,-0.375 -0.40625,-0.375 -0.265625,0 -0.34375,0.21875 -0.375,0.328125 L 0.375,-0.546875 c -0.015625,0.015625 -0.046875,0.09375 -0.046875,0.109375 0,0.078125 0.21875,0.15625 0.28125,0.15625 0.046875,0 0.046875,-0.015625 0.09375,-0.125 z m 0,0"
           id="path5810" />
      </symbol>
    </g>
    <g
       id="g938">
      <symbol
         overflow="visible"
         id="symbol5153">
        <path
           style="stroke:none;"
           d=""
           id="path4537" />
      </symbol>
      <symbol
         overflow="visible"
         id="symbol8454">
        <path
           style="stroke:none;"
           d="M 6.03125 -3.703125 C 6.03125 -4.15625 5.859375 -4.40625 5.625 -4.40625 C 5.375 -4.40625 5.109375 -4.171875 5.109375 -3.9375 C 5.109375 -3.84375 5.15625 -3.734375 5.25 -3.640625 C 5.421875 -3.484375 5.609375 -3.21875 5.609375 -2.796875 C 5.609375 -2.40625 5.40625 -1.828125 5.109375 -1.375 C 4.8125 -0.953125 4.4375 -0.609375 3.96875 -0.609375 C 3.40625 -0.609375 3.09375 -0.96875 3 -1.5 C 3.109375 -1.765625 3.34375 -2.40625 3.34375 -2.6875 C 3.34375 -2.796875 3.296875 -2.90625 3.15625 -2.90625 C 3.078125 -2.90625 2.96875 -2.875 2.890625 -2.734375 C 2.78125 -2.53125 2.65625 -1.890625 2.65625 -1.53125 C 2.328125 -1.0625 1.9375 -0.609375 1.3125 -0.609375 C 0.640625 -0.609375 0.4375 -1.203125 0.4375 -1.75 C 0.4375 -3 1.453125 -4.046875 1.453125 -4.171875 C 1.453125 -4.28125 1.375 -4.359375 1.265625 -4.359375 C 1.140625 -4.359375 1.0625 -4.234375 1 -4.140625 C 0.5 -3.40625 0.125 -2.21875 0.125 -1.3125 C 0.125 -0.625 0.34375 0.109375 1.171875 0.109375 C 1.875 0.109375 2.34375 -0.390625 2.703125 -0.9375 C 2.796875 -0.359375 3.1875 0.109375 3.796875 0.109375 C 4.578125 0.109375 5.046875 -0.5 5.40625 -1.25 C 5.65625 -1.734375 6.03125 -3.09375 6.03125 -3.703125 Z M 6.03125 -3.703125 "
           id="path4844" />
      </symbol>
      <symbol
         overflow="visible"
         id="symbol6646">
        <path
           style="stroke:none;"
           d=""
           id="path5231" />
      </symbol>
      <symbol
         overflow="visible"
         id="symbol5520">
        <path
           style="stroke:none;"
           d="M 3.59375 -2.21875 C 3.59375 -2.984375 3.5 -3.546875 3.1875 -4.03125 C 2.96875 -4.34375 2.53125 -4.625 1.984375 -4.625 C 0.359375 -4.625 0.359375 -2.71875 0.359375 -2.21875 C 0.359375 -1.71875 0.359375 0.140625 1.984375 0.140625 C 3.59375 0.140625 3.59375 -1.71875 3.59375 -2.21875 Z M 1.984375 -0.0625 C 1.65625 -0.0625 1.234375 -0.25 1.09375 -0.8125 C 1 -1.21875 1 -1.796875 1 -2.3125 C 1 -2.828125 1 -3.359375 1.09375 -3.734375 C 1.25 -4.28125 1.6875 -4.4375 1.984375 -4.4375 C 2.359375 -4.4375 2.71875 -4.203125 2.84375 -3.796875 C 2.953125 -3.421875 2.96875 -2.921875 2.96875 -2.3125 C 2.96875 -1.796875 2.96875 -1.28125 2.875 -0.84375 C 2.734375 -0.203125 2.265625 -0.0625 1.984375 -0.0625 Z M 1.984375 -0.0625 "
           id="path7564" />
      </symbol>
    </g>
    <g
       id="g3462">
      <symbol
         overflow="visible"
         id="symbol5982">
        <path
           style="stroke:none;"
           d=""
           id="path2158" />
      </symbol>
      <symbol
         overflow="visible"
         id="symbol3203">
        <path
           style="stroke:none;"
           d="M 1.578125 -7.125 C 1.578125 -7.296875 1.578125 -7.484375 1.390625 -7.484375 C 1.1875 -7.484375 1.1875 -7.296875 1.1875 -7.125 L 1.1875 2.140625 C 1.1875 2.3125 1.1875 2.5 1.390625 2.5 C 1.578125 2.5 1.578125 2.3125 1.578125 2.140625 Z M 1.578125 -7.125 "
           id="path4471" />
      </symbol>
      <symbol
         overflow="visible"
         id="symbol8096">
        <path
           style="stroke:none;"
           d="M 2.71875 -2.328125 C 2.765625 -2.4375 2.765625 -2.46875 2.765625 -2.5 C 2.765625 -2.515625 2.765625 -2.546875 2.71875 -2.65625 L 0.984375 -7.25 C 0.921875 -7.421875 0.859375 -7.484375 0.75 -7.484375 C 0.640625 -7.484375 0.546875 -7.390625 0.546875 -7.28125 C 0.546875 -7.25 0.546875 -7.234375 0.59375 -7.125 L 2.359375 -2.5 L 0.59375 2.109375 C 0.546875 2.21875 0.546875 2.25 0.546875 2.296875 C 0.546875 2.40625 0.640625 2.5 0.75 2.5 C 0.875 2.5 0.921875 2.390625 0.953125 2.296875 Z M 2.71875 -2.328125 "
           id="path2550" />
      </symbol>
      <symbol
         overflow="visible"
         id="symbol3271">
        <path
           style="stroke:none;"
           d=""
           id="path7416" />
      </symbol>
      <symbol
         overflow="visible"
         id="symbol4317">
        <path
           style="stroke:none;"
           d="M 4.6875 -3.765625 C 4.703125 -3.8125 4.71875 -3.875 4.71875 -3.9375 C 4.71875 -4.109375 4.609375 -4.203125 4.4375 -4.203125 C 4.34375 -4.203125 4.0625 -4.140625 4.03125 -3.78125 C 3.84375 -4.140625 3.5 -4.40625 3.09375 -4.40625 C 1.96875 -4.40625 0.734375 -3.015625 0.734375 -1.578125 C 0.734375 -0.59375 1.328125 0 2.046875 0 C 2.640625 0 3.109375 -0.46875 3.203125 -0.578125 L 3.21875 -0.5625 C 3.015625 0.3125 2.890625 0.734375 2.890625 0.75 C 2.84375 0.84375 2.515625 1.828125 1.453125 1.828125 C 1.265625 1.828125 0.9375 1.8125 0.65625 1.71875 C 0.953125 1.640625 1.0625 1.375 1.0625 1.203125 C 1.0625 1.046875 0.953125 0.859375 0.6875 0.859375 C 0.46875 0.859375 0.15625 1.03125 0.15625 1.4375 C 0.15625 1.84375 0.515625 2.046875 1.46875 2.046875 C 2.71875 2.046875 3.4375 1.265625 3.59375 0.671875 Z M 3.40625 -1.28125 C 3.34375 -1.015625 3.109375 -0.765625 2.890625 -0.578125 C 2.6875 -0.40625 2.375 -0.21875 2.078125 -0.21875 C 1.578125 -0.21875 1.4375 -0.734375 1.4375 -1.140625 C 1.4375 -1.609375 1.71875 -2.796875 2 -3.296875 C 2.265625 -3.78125 2.6875 -4.1875 3.109375 -4.1875 C 3.765625 -4.1875 3.90625 -3.375 3.90625 -3.328125 C 3.90625 -3.28125 3.890625 -3.21875 3.875 -3.1875 Z M 3.40625 -1.28125 "
           id="path4224" />
      </symbol>
    </g>
    <g
       id="g4268">
      <symbol
         overflow="visible"
         id="symbol2347">
        <path
           style="stroke:none;"
           d=""
           id="path8101" />
      </symbol>
      <symbol
         overflow="visible"
         id="symbol7707">
        <path
           style="stroke:none;"
           d="M 1.578125 -7.125 C 1.578125 -7.296875 1.578125 -7.484375 1.390625 -7.484375 C 1.1875 -7.484375 1.1875 -7.296875 1.1875 -7.125 L 1.1875 2.140625 C 1.1875 2.3125 1.1875 2.5 1.390625 2.5 C 1.578125 2.5 1.578125 2.3125 1.578125 2.140625 Z M 1.578125 -7.125 "
           id="path6393" />
      </symbol>
      <symbol
         overflow="visible"
         id="symbol9113">
        <path
           style="stroke:none;"
           d="M 2.71875 -2.328125 C 2.765625 -2.4375 2.765625 -2.46875 2.765625 -2.5 C 2.765625 -2.515625 2.765625 -2.546875 2.71875 -2.65625 L 0.984375 -7.25 C 0.921875 -7.421875 0.859375 -7.484375 0.75 -7.484375 C 0.640625 -7.484375 0.546875 -7.390625 0.546875 -7.28125 C 0.546875 -7.25 0.546875 -7.234375 0.59375 -7.125 L 2.359375 -2.5 L 0.59375 2.109375 C 0.546875 2.21875 0.546875 2.25 0.546875 2.296875 C 0.546875 2.40625 0.640625 2.5 0.75 2.5 C 0.875 2.5 0.921875 2.390625 0.953125 2.296875 Z M 2.71875 -2.328125 "
           id="path5953" />
      </symbol>
      <symbol
         overflow="visible"
         id="symbol7191">
        <path
           style="stroke:none;"
           d=""
           id="path7075" />
      </symbol>
      <symbol
         overflow="visible"
         id="symbol3411">
        <path
           style="stroke:none;"
           d="M 1.859375 -2.296875 C 2.15625 -2.296875 2.890625 -2.328125 3.390625 -2.53125 C 4.09375 -2.828125 4.140625 -3.421875 4.140625 -3.5625 C 4.140625 -4 3.765625 -4.40625 3.078125 -4.40625 C 1.96875 -4.40625 0.453125 -3.4375 0.453125 -1.6875 C 0.453125 -0.671875 1.046875 0.109375 2.03125 0.109375 C 3.453125 0.109375 4.28125 -0.953125 4.28125 -1.0625 C 4.28125 -1.125 4.234375 -1.203125 4.171875 -1.203125 C 4.109375 -1.203125 4.09375 -1.171875 4.03125 -1.09375 C 3.25 -0.109375 2.15625 -0.109375 2.046875 -0.109375 C 1.265625 -0.109375 1.171875 -0.953125 1.171875 -1.265625 C 1.171875 -1.390625 1.1875 -1.6875 1.328125 -2.296875 Z M 1.390625 -2.515625 C 1.78125 -4.03125 2.8125 -4.1875 3.078125 -4.1875 C 3.53125 -4.1875 3.8125 -3.890625 3.8125 -3.5625 C 3.8125 -2.515625 2.21875 -2.515625 1.796875 -2.515625 Z M 1.390625 -2.515625 "
           id="path4572" />
      </symbol>
    </g>
    <g
       id="g965">
      <symbol
         overflow="visible"
         id="symbol7429">
        <path
           style="stroke:none;"
           d=""
           id="path1446" />
      </symbol>
      <symbol
         overflow="visible"
         id="symbol4348">
        <path
           style="stroke:none;"
           d="M 1.578125 -7.125 C 1.578125 -7.296875 1.578125 -7.484375 1.390625 -7.484375 C 1.1875 -7.484375 1.1875 -7.296875 1.1875 -7.125 L 1.1875 2.140625 C 1.1875 2.3125 1.1875 2.5 1.390625 2.5 C 1.578125 2.5 1.578125 2.3125 1.578125 2.140625 Z M 1.578125 -7.125 "
           id="path3628" />
      </symbol>
      <symbol
         overflow="visible"
         id="symbol5044">
        <path
           style="stroke:none;"
           d="M 2.71875 -2.328125 C 2.765625 -2.4375 2.765625 -2.46875 2.765625 -2.5 C 2.765625 -2.515625 2.765625 -2.546875 2.71875 -2.65625 L 0.984375 -7.25 C 0.921875 -7.421875 0.859375 -7.484375 0.75 -7.484375 C 0.640625 -7.484375 0.546875 -7.390625 0.546875 -7.28125 C 0.546875 -7.25 0.546875 -7.234375 0.59375 -7.125 L 2.359375 -2.5 L 0.59375 2.109375 C 0.546875 2.21875 0.546875 2.25 0.546875 2.296875 C 0.546875 2.40625 0.640625 2.5 0.75 2.5 C 0.875 2.5 0.921875 2.390625 0.953125 2.296875 Z M 2.71875 -2.328125 "
           id="path3598" />
      </symbol>
      <symbol
         overflow="visible"
         id="symbol5425">
        <path
           style="stroke:none;"
           d=""
           id="path1672" />
      </symbol>
      <symbol
         overflow="visible"
         id="symbol3383">
        <path
           style="stroke:none;"
           d="M 1.859375 -2.296875 C 2.15625 -2.296875 2.890625 -2.328125 3.390625 -2.53125 C 4.09375 -2.828125 4.140625 -3.421875 4.140625 -3.5625 C 4.140625 -4 3.765625 -4.40625 3.078125 -4.40625 C 1.96875 -4.40625 0.453125 -3.4375 0.453125 -1.6875 C 0.453125 -0.671875 1.046875 0.109375 2.03125 0.109375 C 3.453125 0.109375 4.28125 -0.953125 4.28125 -1.0625 C 4.28125 -1.125 4.234375 -1.203125 4.171875 -1.203125 C 4.109375 -1.203125 4.09375 -1.171875 4.03125 -1.09375 C 3.25 -0.109375 2.15625 -0.109375 2.046875 -0.109375 C 1.265625 -0.109375 1.171875 -0.953125 1.171875 -1.265625 C 1.171875 -1.390625 1.1875 -1.6875 1.328125 -2.296875 Z M 1.390625 -2.515625 C 1.78125 -4.03125 2.8125 -4.1875 3.078125 -4.1875 C 3.53125 -4.1875 3.8125 -3.890625 3.8125 -3.5625 C 3.8125 -2.515625 2.21875 -2.515625 1.796875 -2.515625 Z M 1.390625 -2.515625 "
           id="path1387" />
      </symbol>
      <symbol
         overflow="visible"
         id="symbol7595">
        <path
           style="stroke:none;"
           d=""
           id="path3686" />
      </symbol>
      <symbol
         overflow="visible"
         id="symbol7822">
        <path
           style="stroke:none;"
           d="M 2.015625 -3.296875 C 2.078125 -3.40625 2.078125 -3.46875 2.078125 -3.515625 C 2.078125 -3.734375 1.890625 -3.890625 1.671875 -3.890625 C 1.40625 -3.890625 1.328125 -3.671875 1.296875 -3.5625 L 0.375 -0.546875 C 0.359375 -0.53125 0.328125 -0.453125 0.328125 -0.4375 C 0.328125 -0.359375 0.546875 -0.28125 0.609375 -0.28125 C 0.65625 -0.28125 0.65625 -0.296875 0.703125 -0.40625 Z M 2.015625 -3.296875 "
           id="path3091" />
      </symbol>
    </g>
  </defs>
  <g
     inkscape:label="Layer 1"
     inkscape:groupmode="layer"
     id="layer1">
    <path
       style="fill:#ffffff;stroke:#ffffff;stroke-width:0.419;stroke-linecap:butt;stroke-linejoin:miter;stroke-miterlimit:3.2;stroke-dasharray:5.028, 0.419;stroke-dashoffset:0;stroke-opacity:1"
       d="M 5.5393148,23.882144 H 81.033559"
       id="path544" />
    <path
       style="fill:#ffffff;stroke:#ffffff;stroke-width:0.419;stroke-linecap:butt;stroke-linejoin:miter;stroke-miterlimit:3.2;stroke-dasharray:none;stroke-dashoffset:0;stroke-opacity:1"
       d="M 5.5393168,91.628743 H 81.033514"
       id="path544-6" />
    <path
       style="fill:#ffffff;stroke:#ffffff;stroke-width:0.419;stroke-linecap:butt;stroke-linejoin:miter;stroke-miterlimit:3.2;stroke-dasharray:none;stroke-dashoffset:0;stroke-opacity:1"
       d="M 5.5393148,6.3465567 H 81.033559"
       id="path544-7" />
    <path
       style="fill:#ffffff;stroke:#ffffff;stroke-width:0.419;stroke-linecap:butt;stroke-linejoin:miter;stroke-miterlimit:3.2;stroke-dasharray:none;stroke-dashoffset:0;stroke-opacity:1;marker-start:url(#marker13381);marker-end:url(#Arrow2Mend)"
       d="m 43.286435,24.535517 -2.3e-5,66.479606"
       id="path1191"
       sodipodi:nodetypes="cc" />
    <path
       style="fill:#ffffff;stroke:#ffffff;stroke-width:0.419;stroke-linecap:butt;stroke-linejoin:miter;stroke-miterlimit:3.2;stroke-dasharray:none;stroke-dashoffset:0;stroke-opacity:1;marker-start:url(#marker13381);marker-end:url(#Arrow2Mend);paint-order:markers fill stroke"
       d="M 43.286435,7.1201007 V 23.281322"
       id="path1193"
       sodipodi:nodetypes="cc" />
    <g
       inkscape:label=""
       transform="translate(-47.248953,-22.801867)"
       id="g1373"
       style="stroke:#ffffff;fill:#ffffff">
      <g
         id="g4992"
         style="stroke:#ffffff;fill:#ffffff">
        <g
           style="fill:#ffffff;fill-opacity:1;stroke:#ffffff"
           id="g4594">
          <use
             xlink:href="#symbol8454"
             x="91.925003"
             y="81.962997"
             id="use3069"
             width="100%"
             height="100%"
             style="stroke:#ffffff;fill:#ffffff" />
        </g>
        <g
           style="fill:#ffffff;fill-opacity:1;stroke:#ffffff"
           id="g5624">
          <use
             xlink:href="#symbol5520"
             x="98.126999"
             y="83.457001"
             id="use2812"
             width="100%"
             height="100%"
             style="stroke:#ffffff;fill:#ffffff" />
        </g>
      </g>
    </g>
    <g
       inkscape:label=""
       transform="translate(-38.28231,-68.920462)"
       id="g11215"
       style="stroke:#ffffff;fill:#ffffff">
      <g
         id="g3939"
         transform="translate(-8.4666729,4.5249401)"
         style="stroke:#ffffff;fill:#ffffff">
        <g
           style="fill:#ffffff;fill-opacity:1;stroke:#ffffff"
           id="g6081">
          <use
             xlink:href="#symbol5598"
             x="91.925003"
             y="81.962997"
             id="use4525"
             width="100%"
             height="100%"
             style="stroke:#ffffff;fill:#ffffff" />
        </g>
      </g>
    </g>
    <g
       inkscape:label=""
       transform="translate(-10.45655,12.157933)"
       id="g2143"
       style="fill:#ffffff">
      <g
         id="g794"
         style="fill:#ffffff">
        <g
           style="fill:#ffffff;fill-opacity:1"
           id="g8006">
          <use
             xlink:href="#symbol3203"
             x="91.925003"
             y="81.962997"
             id="use4417"
             style="fill:#ffffff"
             width="100%"
             height="100%" />
        </g>
        <g
           style="fill:#ffffff;fill-opacity:1"
           id="g5685">
          <use
             xlink:href="#symbol4317"
             x="94.693001"
             y="81.962997"
             id="use3981"
             style="fill:#ffffff"
             width="100%"
             height="100%" />
        </g>
        <g
           style="fill:#ffffff;fill-opacity:1"
           id="g674">
          <use
             xlink:href="#symbol8096"
             x="99.802002"
             y="81.962997"
             id="use1099"
             style="fill:#ffffff"
             width="100%"
             height="100%" />
        </g>
      </g>
    </g>
    <g
       inkscape:label=""
       transform="translate(-10.221504,-55.588666)"
       id="g2456"
       style="fill:#ffffff">
      <g
         id="g5646"
         style="fill:#ffffff">
        <g
           style="fill:#ffffff;fill-opacity:1"
           id="g9875">
          <use
             xlink:href="#symbol7707"
             x="91.925003"
             y="81.962997"
             id="use3441"
             style="fill:#ffffff"
             width="100%"
             height="100%" />
        </g>
        <g
           style="fill:#ffffff;fill-opacity:1"
           id="g4154">
          <use
             xlink:href="#symbol3411"
             x="94.693001"
             y="81.962997"
             id="use9422"
             style="fill:#ffffff"
             width="100%"
             height="100%" />
        </g>
        <g
           style="fill:#ffffff;fill-opacity:1"
           id="g9389">
          <use
             xlink:href="#symbol9113"
             x="99.332001"
             y="81.962997"
             id="use5544"
             style="fill:#ffffff"
             width="100%"
             height="100%" />
        </g>
      </g>
    </g>
    <g
       inkscape:label=""
       transform="translate(-10.560669,-73.11313)"
       id="g3143"
       style="fill:#ffffff">
      <g
         id="g822"
         style="fill:#ffffff">
        <g
           style="fill:#ffffff;fill-opacity:1"
           id="g4771">
          <use
             xlink:href="#symbol4348"
             x="91.925003"
             y="81.962997"
             id="use1900"
             style="fill:#ffffff"
             width="100%"
             height="100%" />
        </g>
        <g
           style="fill:#ffffff;fill-opacity:1"
           id="g3576">
          <use
             xlink:href="#symbol3383"
             x="94.693001"
             y="81.962997"
             id="use2093"
             style="fill:#ffffff"
             width="100%"
             height="100%" />
        </g>
        <g
           style="fill:#ffffff;fill-opacity:1"
           id="g7901">
          <use
             xlink:href="#symbol7822"
             x="99.332001"
             y="78.347"
             id="use284"
             style="fill:#ffffff"
             width="100%"
             height="100%" />
        </g>
        <g
           style="fill:#ffffff;fill-opacity:1"
           id="g1984">
          <use
             xlink:href="#symbol5044"
             x="102.127"
             y="81.962997"
             id="use6542"
             style="fill:#ffffff"
             width="100%"
             height="100%" />
        </g>
      </g>
    </g>
  </g>
</svg>
